<mxfile host="app.diagrams.net" modified="2021-07-13T23:53:11.407Z" agent="5.0 (Macintosh; Intel Mac OS X 10_15_7) AppleWebKit/537.36 (KHTML, like Gecko) Chrome/91.0.4472.114 Safari/537.36" etag="ow3ig01ZEcSkL7McvD1J" version="14.8.3" type="github" pages="2">
  <diagram id="jCEtf1bKy8OYsLulRC5E" name="Page-1">
    <mxGraphModel dx="1406" dy="611" grid="1" gridSize="10" guides="1" tooltips="1" connect="1" arrows="1" fold="1" page="1" pageScale="1" pageWidth="1169" pageHeight="827" math="0" shadow="0">
      <root>
        <mxCell id="0" />
        <mxCell id="1" parent="0" />
        <mxCell id="igIcsMa8fZ0zIMVIfpPq-22" style="edgeStyle=orthogonalEdgeStyle;rounded=0;orthogonalLoop=1;jettySize=auto;html=1;entryX=0;entryY=0.5;entryDx=0;entryDy=0;" edge="1" parent="1" source="igIcsMa8fZ0zIMVIfpPq-1" target="igIcsMa8fZ0zIMVIfpPq-10">
          <mxGeometry relative="1" as="geometry" />
        </mxCell>
        <mxCell id="igIcsMa8fZ0zIMVIfpPq-1" value="Datasets" style="text;html=1;fillColor=none;align=left;verticalAlign=middle;whiteSpace=wrap;rounded=0;fontStyle=1" vertex="1" parent="1">
          <mxGeometry x="260" y="100" width="60" height="20" as="geometry" />
        </mxCell>
        <mxCell id="igIcsMa8fZ0zIMVIfpPq-26" style="edgeStyle=orthogonalEdgeStyle;rounded=0;orthogonalLoop=1;jettySize=auto;html=1;entryX=0;entryY=0.5;entryDx=0;entryDy=0;" edge="1" parent="1" source="igIcsMa8fZ0zIMVIfpPq-2" target="igIcsMa8fZ0zIMVIfpPq-11">
          <mxGeometry relative="1" as="geometry" />
        </mxCell>
        <mxCell id="igIcsMa8fZ0zIMVIfpPq-2" value="Favorites" style="text;html=1;strokeColor=none;fillColor=none;align=left;verticalAlign=middle;whiteSpace=wrap;rounded=0;fontStyle=1" vertex="1" parent="1">
          <mxGeometry x="260" y="260" width="60" height="20" as="geometry" />
        </mxCell>
        <mxCell id="igIcsMa8fZ0zIMVIfpPq-27" style="edgeStyle=orthogonalEdgeStyle;rounded=0;orthogonalLoop=1;jettySize=auto;html=1;entryX=0;entryY=0.5;entryDx=0;entryDy=0;" edge="1" parent="1" source="igIcsMa8fZ0zIMVIfpPq-3" target="igIcsMa8fZ0zIMVIfpPq-12">
          <mxGeometry relative="1" as="geometry" />
        </mxCell>
        <mxCell id="igIcsMa8fZ0zIMVIfpPq-3" value="Create" style="text;html=1;strokeColor=none;fillColor=none;align=left;verticalAlign=middle;whiteSpace=wrap;rounded=0;fontStyle=1" vertex="1" parent="1">
          <mxGeometry x="260" y="340" width="60" height="20" as="geometry" />
        </mxCell>
        <mxCell id="igIcsMa8fZ0zIMVIfpPq-24" style="edgeStyle=orthogonalEdgeStyle;rounded=0;orthogonalLoop=1;jettySize=auto;html=1;entryX=0;entryY=0.5;entryDx=0;entryDy=0;" edge="1" parent="1" source="igIcsMa8fZ0zIMVIfpPq-4" target="igIcsMa8fZ0zIMVIfpPq-13">
          <mxGeometry relative="1" as="geometry" />
        </mxCell>
        <mxCell id="igIcsMa8fZ0zIMVIfpPq-4" value="Tools" style="text;html=1;strokeColor=none;fillColor=none;align=left;verticalAlign=middle;whiteSpace=wrap;rounded=0;fontStyle=1" vertex="1" parent="1">
          <mxGeometry x="260" y="180" width="60" height="20" as="geometry" />
        </mxCell>
        <mxCell id="igIcsMa8fZ0zIMVIfpPq-23" style="edgeStyle=orthogonalEdgeStyle;rounded=0;orthogonalLoop=1;jettySize=auto;html=1;entryX=0;entryY=0.5;entryDx=0;entryDy=0;" edge="1" parent="1" source="igIcsMa8fZ0zIMVIfpPq-10" target="igIcsMa8fZ0zIMVIfpPq-14">
          <mxGeometry relative="1" as="geometry" />
        </mxCell>
        <mxCell id="igIcsMa8fZ0zIMVIfpPq-10" value="Públicos y&lt;br&gt;Privados" style="text;html=1;strokeColor=none;fillColor=none;align=left;verticalAlign=middle;whiteSpace=wrap;rounded=0;" vertex="1" parent="1">
          <mxGeometry x="400" y="100" width="70" height="20" as="geometry" />
        </mxCell>
        <mxCell id="igIcsMa8fZ0zIMVIfpPq-11" value="Guardar dashboards más usados" style="text;html=1;strokeColor=none;fillColor=none;align=left;verticalAlign=middle;whiteSpace=wrap;rounded=0;" vertex="1" parent="1">
          <mxGeometry x="400" y="260" width="70" height="20" as="geometry" />
        </mxCell>
        <mxCell id="igIcsMa8fZ0zIMVIfpPq-12" value="Generar nueva visualización de datos a partir de datasets" style="text;html=1;strokeColor=none;fillColor=none;align=left;verticalAlign=middle;whiteSpace=wrap;rounded=0;" vertex="1" parent="1">
          <mxGeometry x="400" y="340" width="130" height="20" as="geometry" />
        </mxCell>
        <mxCell id="igIcsMa8fZ0zIMVIfpPq-25" style="edgeStyle=orthogonalEdgeStyle;rounded=0;orthogonalLoop=1;jettySize=auto;html=1;entryX=0;entryY=0.5;entryDx=0;entryDy=0;" edge="1" parent="1" source="igIcsMa8fZ0zIMVIfpPq-13" target="igIcsMa8fZ0zIMVIfpPq-15">
          <mxGeometry relative="1" as="geometry" />
        </mxCell>
        <mxCell id="igIcsMa8fZ0zIMVIfpPq-13" value="Específicas para áreas y compartidas" style="text;html=1;strokeColor=none;fillColor=none;align=left;verticalAlign=middle;whiteSpace=wrap;rounded=0;" vertex="1" parent="1">
          <mxGeometry x="400" y="180" width="70" height="20" as="geometry" />
        </mxCell>
        <mxCell id="igIcsMa8fZ0zIMVIfpPq-14" value="Consulta y/o descarga de datasets de dashboards. Archivos CSV.&lt;br&gt;Ej. Dataset Seguimiento Campañas, Dataset Calculadora de Reach" style="text;html=1;strokeColor=none;fillColor=none;align=left;verticalAlign=middle;whiteSpace=wrap;rounded=0;" vertex="1" parent="1">
          <mxGeometry x="530" y="100" width="210" height="20" as="geometry" />
        </mxCell>
        <mxCell id="igIcsMa8fZ0zIMVIfpPq-15" value="Seguimiento de campañas" style="text;html=1;strokeColor=none;align=center;verticalAlign=middle;whiteSpace=wrap;rounded=0;fontStyle=1;fillColor=#CCCCCC;" vertex="1" parent="1">
          <mxGeometry x="530" y="175" width="80" height="30" as="geometry" />
        </mxCell>
        <mxCell id="igIcsMa8fZ0zIMVIfpPq-16" value="Mapa de Media" style="text;html=1;strokeColor=none;align=center;verticalAlign=middle;whiteSpace=wrap;rounded=0;fontStyle=1;fillColor=#CCCCCC;" vertex="1" parent="1">
          <mxGeometry x="628" y="175" width="80" height="30" as="geometry" />
        </mxCell>
        <mxCell id="igIcsMa8fZ0zIMVIfpPq-17" value="Calculadora de Reach" style="text;html=1;strokeColor=none;align=center;verticalAlign=middle;whiteSpace=wrap;rounded=0;fontStyle=1;fillColor=#CCCCCC;" vertex="1" parent="1">
          <mxGeometry x="726" y="175" width="80" height="30" as="geometry" />
        </mxCell>
        <mxCell id="igIcsMa8fZ0zIMVIfpPq-18" value="Estimar performance" style="text;html=1;strokeColor=none;align=center;verticalAlign=middle;whiteSpace=wrap;rounded=0;fontStyle=1;fillColor=#CCCCCC;" vertex="1" parent="1">
          <mxGeometry x="824" y="175" width="80" height="30" as="geometry" />
        </mxCell>
        <mxCell id="igIcsMa8fZ0zIMVIfpPq-19" value="Márgen de campañas" style="text;html=1;strokeColor=none;align=center;verticalAlign=middle;whiteSpace=wrap;rounded=0;fontStyle=1;fillColor=#CCCCCC;" vertex="1" parent="1">
          <mxGeometry x="922" y="175" width="80" height="30" as="geometry" />
        </mxCell>
        <mxCell id="igIcsMa8fZ0zIMVIfpPq-21" value="P&amp;amp;L" style="text;html=1;strokeColor=none;align=center;verticalAlign=middle;whiteSpace=wrap;rounded=0;fontStyle=1;fillColor=#CCCCCC;" vertex="1" parent="1">
          <mxGeometry x="1020" y="175" width="80" height="30" as="geometry" />
        </mxCell>
      </root>
    </mxGraphModel>
  </diagram>
  <diagram id="JNLUFI6NVu_09dk0-65Q" name="Mapa de Media">
    <mxGraphModel dx="1654" dy="-108" grid="1" gridSize="10" guides="1" tooltips="1" connect="1" arrows="1" fold="1" page="1" pageScale="1" pageWidth="1169" pageHeight="827" math="0" shadow="0">
      <root>
        <mxCell id="81niclgjnJy0ma31-HyY-0" />
        <mxCell id="81niclgjnJy0ma31-HyY-1" parent="81niclgjnJy0ma31-HyY-0" />
        <mxCell id="81niclgjnJy0ma31-HyY-2" value="tt" style="whiteSpace=wrap;html=1;rounded=0;shadow=0;glass=1;dashed=1;sketch=0;strokeColor=#000000;fontSize=11;fontColor=#000000;align=center;" vertex="1" parent="81niclgjnJy0ma31-HyY-1">
          <mxGeometry x="160" y="959" width="870" height="591" as="geometry" />
        </mxCell>
        <mxCell id="81niclgjnJy0ma31-HyY-3" value="" style="rounded=0;whiteSpace=wrap;html=1;align=left;dashed=1;dashPattern=1 4;" vertex="1" parent="81niclgjnJy0ma31-HyY-1">
          <mxGeometry x="170" y="969" width="394" height="250" as="geometry" />
        </mxCell>
        <mxCell id="81niclgjnJy0ma31-HyY-4" value="" style="rounded=0;whiteSpace=wrap;html=1;align=left;dashed=1;dashPattern=1 4;" vertex="1" parent="81niclgjnJy0ma31-HyY-1">
          <mxGeometry x="370" y="1079" width="194" height="100" as="geometry" />
        </mxCell>
        <mxCell id="81niclgjnJy0ma31-HyY-5" value="" style="rounded=0;whiteSpace=wrap;html=1;align=left;dashed=1;dashPattern=1 4;" vertex="1" parent="81niclgjnJy0ma31-HyY-1">
          <mxGeometry x="170" y="969" width="194" height="210" as="geometry" />
        </mxCell>
        <mxCell id="81niclgjnJy0ma31-HyY-6" value="" style="rounded=0;whiteSpace=wrap;html=1;align=left;dashed=1;dashPattern=1 4;" vertex="1" parent="81niclgjnJy0ma31-HyY-1">
          <mxGeometry x="370" y="969" width="194" height="100" as="geometry" />
        </mxCell>
        <mxCell id="81niclgjnJy0ma31-HyY-7" value="&lt;b&gt;Targeting&lt;/b&gt;" style="text;html=1;strokeColor=none;fillColor=none;align=center;verticalAlign=middle;whiteSpace=wrap;rounded=0;" vertex="1" parent="81niclgjnJy0ma31-HyY-1">
          <mxGeometry x="204" y="969" width="80" height="20" as="geometry" />
        </mxCell>
        <mxCell id="81niclgjnJy0ma31-HyY-8" value="Select Countries" style="text;html=1;fillColor=none;align=left;verticalAlign=middle;whiteSpace=wrap;rounded=1;strokeColor=#000000;fontColor=#B3B3B3;fontSize=11;" vertex="1" parent="81niclgjnJy0ma31-HyY-1">
          <mxGeometry x="197" y="1037" width="160" height="20" as="geometry" />
        </mxCell>
        <mxCell id="81niclgjnJy0ma31-HyY-9" value="&lt;b&gt;Budget&lt;/b&gt;" style="text;html=1;strokeColor=none;fillColor=none;align=center;verticalAlign=middle;whiteSpace=wrap;rounded=0;" vertex="1" parent="81niclgjnJy0ma31-HyY-1">
          <mxGeometry x="394" y="969" width="80" height="20" as="geometry" />
        </mxCell>
        <mxCell id="81niclgjnJy0ma31-HyY-10" value="&lt;b&gt;Creative&lt;/b&gt;" style="text;html=1;strokeColor=none;fillColor=none;align=center;verticalAlign=middle;whiteSpace=wrap;rounded=0;" vertex="1" parent="81niclgjnJy0ma31-HyY-1">
          <mxGeometry x="390" y="1084" width="80" height="20" as="geometry" />
        </mxCell>
        <mxCell id="81niclgjnJy0ma31-HyY-11" value="Select Amount" style="text;html=1;fillColor=none;align=left;verticalAlign=middle;whiteSpace=wrap;rounded=1;strokeColor=#000000;fontStyle=0;fontColor=#B3B3B3;fontSize=11;glass=1;shadow=0;sketch=0;" vertex="1" parent="81niclgjnJy0ma31-HyY-1">
          <mxGeometry x="394" y="1009" width="160" height="20" as="geometry" />
        </mxCell>
        <mxCell id="81niclgjnJy0ma31-HyY-12" value="Model" style="rounded=1;fillColor=#F1F2F4;strokeColor=none;html=1;fontColor=#596780;align=left;fontSize=12;spacingLeft=10" vertex="1" parent="81niclgjnJy0ma31-HyY-1">
          <mxGeometry x="394" y="1039" width="70" height="20" as="geometry" />
        </mxCell>
        <mxCell id="81niclgjnJy0ma31-HyY-13" value="" style="shape=triangle;direction=south;fillColor=#596780;strokeColor=none;html=1" vertex="1" parent="81niclgjnJy0ma31-HyY-12">
          <mxGeometry x="1" y="0.5" width="12" height="6" relative="1" as="geometry">
            <mxPoint x="-20" y="-3" as="offset" />
          </mxGeometry>
        </mxCell>
        <mxCell id="81niclgjnJy0ma31-HyY-14" value="Select Formats" style="rounded=1;fillColor=#F1F2F4;strokeColor=none;html=1;fontColor=#596780;align=left;fontSize=12;spacingLeft=10" vertex="1" parent="81niclgjnJy0ma31-HyY-1">
          <mxGeometry x="394" y="1149" width="164" height="20" as="geometry" />
        </mxCell>
        <mxCell id="81niclgjnJy0ma31-HyY-15" value="" style="shape=triangle;direction=south;fillColor=#596780;strokeColor=none;html=1" vertex="1" parent="81niclgjnJy0ma31-HyY-14">
          <mxGeometry x="1" y="0.5" width="12" height="6" relative="1" as="geometry">
            <mxPoint x="-20" y="-3" as="offset" />
          </mxGeometry>
        </mxCell>
        <mxCell id="81niclgjnJy0ma31-HyY-16" value="Categories/Passion Point" style="rounded=1;fillColor=#F1F2F4;strokeColor=none;html=1;fontColor=#596780;align=left;fontSize=12;spacingLeft=10" vertex="1" parent="81niclgjnJy0ma31-HyY-1">
          <mxGeometry x="197" y="1135" width="160" height="20" as="geometry" />
        </mxCell>
        <mxCell id="81niclgjnJy0ma31-HyY-17" value="" style="shape=triangle;direction=south;fillColor=#596780;strokeColor=none;html=1" vertex="1" parent="81niclgjnJy0ma31-HyY-16">
          <mxGeometry x="1" y="0.5" width="12" height="6" relative="1" as="geometry">
            <mxPoint x="-20" y="-3" as="offset" />
          </mxGeometry>
        </mxCell>
        <mxCell id="81niclgjnJy0ma31-HyY-18" value="" style="strokeWidth=1;shadow=0;dashed=0;align=center;html=1;shape=mxgraph.mockup.rrect;rSize=10;fillColor=#F1F2F4;strokeColor=#ffffff;strokeWidth=2;rounded=1;glass=1;sketch=0;fontSize=10;fontColor=#B3B3B3;" vertex="1" parent="81niclgjnJy0ma31-HyY-1">
          <mxGeometry x="197" y="1084" width="160" height="20" as="geometry" />
        </mxCell>
        <mxCell id="81niclgjnJy0ma31-HyY-19" value="Girls" style="rounded=0;fontSize=12;fontColor=#596780;fontStyle=0;fillColor=none;strokeColor=#ffffff;strokeWidth=2;resizeHeight=1;" vertex="1" parent="81niclgjnJy0ma31-HyY-18">
          <mxGeometry width="80" height="20" relative="1" as="geometry">
            <mxPoint x="80" as="offset" />
          </mxGeometry>
        </mxCell>
        <mxCell id="81niclgjnJy0ma31-HyY-20" value="Boys" style="strokeWidth=1;shadow=0;dashed=0;align=center;html=1;shape=mxgraph.mockup.leftButton;rSize=10;fontSize=12;fontColor=#596780;fontStyle=0;fillColor=none;strokeColor=#ffffff;strokeWidth=2;resizeHeight=1;" vertex="1" parent="81niclgjnJy0ma31-HyY-18">
          <mxGeometry width="80" height="20" relative="1" as="geometry" />
        </mxCell>
        <mxCell id="81niclgjnJy0ma31-HyY-21" value="" style="dashed=0;verticalLabelPosition=bottom;verticalAlign=top;align=center;shape=mxgraph.gmdl.slider2;barPos=0;strokeColor=#bbbbbb;opacity=100;strokeWidth=2;handleSize=10;shadow=0;rounded=1;glass=1;sketch=0;fontSize=10;fontColor=#B3B3B3;" vertex="1" parent="81niclgjnJy0ma31-HyY-1">
          <mxGeometry x="198" y="1114" width="160" height="10" as="geometry" />
        </mxCell>
        <mxCell id="81niclgjnJy0ma31-HyY-22" value="Age &amp;amp; Gender" style="text;html=1;fillColor=none;align=left;verticalAlign=middle;whiteSpace=wrap;rounded=1;fontStyle=1" vertex="1" parent="81niclgjnJy0ma31-HyY-1">
          <mxGeometry x="197" y="1064" width="160" height="20" as="geometry" />
        </mxCell>
        <mxCell id="81niclgjnJy0ma31-HyY-23" value="0" style="text;html=1;fillColor=none;align=left;verticalAlign=middle;whiteSpace=wrap;rounded=1;fontSize=7;" vertex="1" parent="81niclgjnJy0ma31-HyY-1">
          <mxGeometry x="197" y="1123" width="10" height="10" as="geometry" />
        </mxCell>
        <mxCell id="81niclgjnJy0ma31-HyY-24" value="18" style="text;html=1;fillColor=none;align=left;verticalAlign=middle;whiteSpace=wrap;rounded=1;fontSize=7;" vertex="1" parent="81niclgjnJy0ma31-HyY-1">
          <mxGeometry x="347" y="1123" width="10" height="10" as="geometry" />
        </mxCell>
        <mxCell id="81niclgjnJy0ma31-HyY-25" value="Platform" style="rounded=1;fillColor=#F1F2F4;strokeColor=none;html=1;fontColor=#596780;align=left;fontSize=12;spacingLeft=10" vertex="1" parent="81niclgjnJy0ma31-HyY-1">
          <mxGeometry x="394" y="1119" width="80" height="20" as="geometry" />
        </mxCell>
        <mxCell id="81niclgjnJy0ma31-HyY-26" value="" style="shape=triangle;direction=south;fillColor=#596780;strokeColor=none;html=1" vertex="1" parent="81niclgjnJy0ma31-HyY-25">
          <mxGeometry x="1" y="0.5" width="12" height="6" relative="1" as="geometry">
            <mxPoint x="-20" y="-3" as="offset" />
          </mxGeometry>
        </mxCell>
        <mxCell id="81niclgjnJy0ma31-HyY-27" value="Device" style="rounded=1;fillColor=#F1F2F4;strokeColor=none;html=1;fontColor=#596780;align=left;fontSize=12;spacingLeft=10" vertex="1" parent="81niclgjnJy0ma31-HyY-1">
          <mxGeometry x="478" y="1119" width="80" height="20" as="geometry" />
        </mxCell>
        <mxCell id="81niclgjnJy0ma31-HyY-28" value="" style="shape=triangle;direction=south;fillColor=#596780;strokeColor=none;html=1" vertex="1" parent="81niclgjnJy0ma31-HyY-27">
          <mxGeometry x="1" y="0.5" width="12" height="6" relative="1" as="geometry">
            <mxPoint x="-20" y="-3" as="offset" />
          </mxGeometry>
        </mxCell>
        <mxCell id="81niclgjnJy0ma31-HyY-29" value="" style="rounded=0;whiteSpace=wrap;html=1;align=left;dashed=1;dashPattern=1 4;" vertex="1" parent="81niclgjnJy0ma31-HyY-1">
          <mxGeometry x="170" y="1259" width="850" height="251" as="geometry" />
        </mxCell>
        <mxCell id="81niclgjnJy0ma31-HyY-30" value="App name" style="text;html=1;fillColor=#f5f5f5;align=left;verticalAlign=middle;whiteSpace=wrap;rounded=1;strokeColor=#666666;fontColor=#333333;fontStyle=1" vertex="1" parent="81niclgjnJy0ma31-HyY-1">
          <mxGeometry x="253" y="1357" width="207" height="20" as="geometry" />
        </mxCell>
        <mxCell id="81niclgjnJy0ma31-HyY-31" value="Channel name" style="text;html=1;fillColor=#f5f5f5;align=left;verticalAlign=middle;whiteSpace=wrap;rounded=1;strokeColor=#666666;fontColor=#333333;fontStyle=1" vertex="1" parent="81niclgjnJy0ma31-HyY-1">
          <mxGeometry x="253" y="1447" width="207" height="20" as="geometry" />
        </mxCell>
        <mxCell id="81niclgjnJy0ma31-HyY-32" value="App name" style="text;html=1;fillColor=#f5f5f5;align=left;verticalAlign=middle;whiteSpace=wrap;rounded=1;strokeColor=#666666;fontColor=#333333;fontStyle=1" vertex="1" parent="81niclgjnJy0ma31-HyY-1">
          <mxGeometry x="253" y="1477" width="207" height="20" as="geometry" />
        </mxCell>
        <mxCell id="81niclgjnJy0ma31-HyY-33" value="" style="pointerEvents=1;shadow=0;dashed=0;html=1;strokeColor=none;fillColor=#434445;aspect=fixed;labelPosition=center;verticalLabelPosition=bottom;verticalAlign=top;align=center;outlineConnect=0;shape=mxgraph.vvd.app;rounded=1;glass=1;dashPattern=1 4;sketch=0;fontSize=8;fontColor=#000000;" vertex="1" parent="81niclgjnJy0ma31-HyY-1">
          <mxGeometry x="224" y="1335" width="20" height="20" as="geometry" />
        </mxCell>
        <mxCell id="81niclgjnJy0ma31-HyY-34" value="" style="pointerEvents=1;shadow=0;dashed=0;html=1;strokeColor=none;fillColor=#434445;aspect=fixed;labelPosition=center;verticalLabelPosition=bottom;verticalAlign=top;align=center;outlineConnect=0;shape=mxgraph.vvd.app;rounded=1;glass=1;dashPattern=1 4;sketch=0;fontSize=8;fontColor=#000000;" vertex="1" parent="81niclgjnJy0ma31-HyY-1">
          <mxGeometry x="223" y="1477" width="20" height="20" as="geometry" />
        </mxCell>
        <mxCell id="81niclgjnJy0ma31-HyY-35" value="" style="shape=image;html=1;verticalAlign=top;verticalLabelPosition=bottom;labelBackgroundColor=#ffffff;imageAspect=0;aspect=fixed;image=https://cdn4.iconfinder.com/data/icons/ionicons/512/icon-social-youtube-outline-128.png;rounded=1;shadow=0;glass=1;dashed=1;dashPattern=1 4;sketch=0;strokeColor=#000000;fontSize=8;fontColor=#000000;align=left;" vertex="1" parent="81niclgjnJy0ma31-HyY-1">
          <mxGeometry x="223" y="1447" width="20" height="20" as="geometry" />
        </mxCell>
        <mxCell id="81niclgjnJy0ma31-HyY-36" value="Format 1" style="text;html=1;fillColor=#f5f5f5;align=left;verticalAlign=middle;whiteSpace=wrap;rounded=1;strokeColor=#666666;fontColor=#333333;" vertex="1" parent="81niclgjnJy0ma31-HyY-1">
          <mxGeometry x="253" y="1377" width="207" height="20" as="geometry" />
        </mxCell>
        <mxCell id="81niclgjnJy0ma31-HyY-37" value="Format 2" style="text;html=1;fillColor=#f5f5f5;align=left;verticalAlign=middle;whiteSpace=wrap;rounded=1;strokeColor=#666666;fontColor=#333333;" vertex="1" parent="81niclgjnJy0ma31-HyY-1">
          <mxGeometry x="253" y="1397" width="207" height="20" as="geometry" />
        </mxCell>
        <mxCell id="81niclgjnJy0ma31-HyY-38" value="Format 3" style="text;html=1;fillColor=#f5f5f5;align=left;verticalAlign=middle;whiteSpace=wrap;rounded=1;strokeColor=#666666;fontColor=#333333;" vertex="1" parent="81niclgjnJy0ma31-HyY-1">
          <mxGeometry x="253" y="1417" width="207" height="20" as="geometry" />
        </mxCell>
        <mxCell id="81niclgjnJy0ma31-HyY-39" value="" style="shape=image;html=1;verticalAlign=top;verticalLabelPosition=bottom;labelBackgroundColor=#ffffff;imageAspect=0;aspect=fixed;image=https://cdn0.iconfinder.com/data/icons/mobile-basic-vol-1/32/Circle_Minus-128.png;rounded=1;shadow=0;glass=1;dashed=1;dashPattern=1 4;sketch=0;strokeColor=#000000;fontSize=8;fontColor=#000000;align=left;" vertex="1" parent="81niclgjnJy0ma31-HyY-1">
          <mxGeometry x="197" y="1310" width="20" height="20" as="geometry" />
        </mxCell>
        <mxCell id="81niclgjnJy0ma31-HyY-40" value="" style="shape=image;html=1;verticalAlign=top;verticalLabelPosition=bottom;labelBackgroundColor=#ffffff;imageAspect=0;aspect=fixed;image=https://cdn0.iconfinder.com/data/icons/mobile-basic-vol-1/32/Circle_Plus-128.png;rounded=1;shadow=0;glass=1;dashed=1;dashPattern=1 4;sketch=0;strokeColor=#000000;fontSize=8;fontColor=#000000;align=left;" vertex="1" parent="81niclgjnJy0ma31-HyY-1">
          <mxGeometry x="197" y="1447" width="20" height="20" as="geometry" />
        </mxCell>
        <mxCell id="81niclgjnJy0ma31-HyY-41" value="" style="shape=image;html=1;verticalAlign=top;verticalLabelPosition=bottom;labelBackgroundColor=#ffffff;imageAspect=0;aspect=fixed;image=https://cdn0.iconfinder.com/data/icons/mobile-basic-vol-1/32/Circle_Plus-128.png;rounded=1;shadow=0;glass=1;dashed=1;dashPattern=1 4;sketch=0;strokeColor=#000000;fontSize=8;fontColor=#000000;align=left;" vertex="1" parent="81niclgjnJy0ma31-HyY-1">
          <mxGeometry x="197" y="1477" width="20" height="20" as="geometry" />
        </mxCell>
        <mxCell id="81niclgjnJy0ma31-HyY-42" value="&lt;span&gt;Export List&lt;/span&gt;" style="text;html=1;fillColor=none;align=center;verticalAlign=middle;whiteSpace=wrap;rounded=1;fontStyle=0;fontSize=11;glass=1;shadow=0;sketch=0;strokeColor=#000000;" vertex="1" parent="81niclgjnJy0ma31-HyY-1">
          <mxGeometry x="923" y="1520" width="80" height="20" as="geometry" />
        </mxCell>
        <mxCell id="81niclgjnJy0ma31-HyY-43" value="&lt;b&gt;&lt;font color=&quot;#000000&quot;&gt;See results&lt;/font&gt;&lt;/b&gt;" style="text;html=1;fillColor=none;align=center;verticalAlign=middle;whiteSpace=wrap;rounded=1;strokeColor=#000000;fontColor=#B3B3B3;fontSize=11;" vertex="1" parent="81niclgjnJy0ma31-HyY-1">
          <mxGeometry x="204" y="1189" width="350" height="20" as="geometry" />
        </mxCell>
        <mxCell id="81niclgjnJy0ma31-HyY-44" value="" style="shape=image;html=1;verticalAlign=top;verticalLabelPosition=bottom;labelBackgroundColor=#ffffff;imageAspect=0;aspect=fixed;image=https://cdn1.iconfinder.com/data/icons/freeline/32/eye_preview_see_seen_view-128.png;rounded=0;shadow=0;glass=1;dashed=1;sketch=0;strokeColor=#000000;fontSize=11;fontColor=#000000;align=center;" vertex="1" parent="81niclgjnJy0ma31-HyY-1">
          <mxGeometry x="440" y="1379.5" width="15" height="15" as="geometry" />
        </mxCell>
        <mxCell id="81niclgjnJy0ma31-HyY-45" value="" style="shape=image;html=1;verticalAlign=top;verticalLabelPosition=bottom;labelBackgroundColor=#ffffff;imageAspect=0;aspect=fixed;image=https://cdn1.iconfinder.com/data/icons/freeline/32/eye_preview_see_seen_view-128.png;rounded=0;shadow=0;glass=1;dashed=1;sketch=0;strokeColor=#000000;fontSize=11;fontColor=#000000;align=center;" vertex="1" parent="81niclgjnJy0ma31-HyY-1">
          <mxGeometry x="440" y="1399.5" width="15" height="15" as="geometry" />
        </mxCell>
        <mxCell id="81niclgjnJy0ma31-HyY-46" value="" style="shape=image;html=1;verticalAlign=top;verticalLabelPosition=bottom;labelBackgroundColor=#ffffff;imageAspect=0;aspect=fixed;image=https://cdn1.iconfinder.com/data/icons/freeline/32/eye_preview_see_seen_view-128.png;rounded=0;shadow=0;glass=1;dashed=1;sketch=0;strokeColor=#000000;fontSize=11;fontColor=#000000;align=center;" vertex="1" parent="81niclgjnJy0ma31-HyY-1">
          <mxGeometry x="440" y="1419.5" width="15" height="15" as="geometry" />
        </mxCell>
        <mxCell id="81niclgjnJy0ma31-HyY-47" value="&lt;b&gt;&lt;font color=&quot;#000000&quot;&gt;Results&lt;/font&gt;&lt;/b&gt;" style="text;html=1;fillColor=none;align=center;verticalAlign=middle;whiteSpace=wrap;rounded=0;strokeColor=#000000;fontColor=#B3B3B3;fontSize=11;" vertex="1" parent="81niclgjnJy0ma31-HyY-1">
          <mxGeometry x="170" y="1239" width="850" height="20" as="geometry" />
        </mxCell>
        <mxCell id="81niclgjnJy0ma31-HyY-48" value="" style="rounded=0;whiteSpace=wrap;html=1;align=left;dashed=1;dashPattern=1 4;" vertex="1" parent="81niclgjnJy0ma31-HyY-1">
          <mxGeometry x="580" y="970" width="370" height="249" as="geometry" />
        </mxCell>
        <mxCell id="81niclgjnJy0ma31-HyY-49" value="" style="rounded=0;whiteSpace=wrap;html=1;align=left;dashed=1;dashPattern=1 4;" vertex="1" parent="81niclgjnJy0ma31-HyY-1">
          <mxGeometry x="580" y="1004" width="370" height="100" as="geometry" />
        </mxCell>
        <mxCell id="81niclgjnJy0ma31-HyY-50" value="&lt;b&gt;Reach&lt;/b&gt;" style="text;html=1;fillColor=none;align=left;verticalAlign=middle;whiteSpace=wrap;rounded=1;fontStyle=0;fontSize=11;glass=1;shadow=0;sketch=0;" vertex="1" parent="81niclgjnJy0ma31-HyY-1">
          <mxGeometry x="590" y="1014" width="80" height="20" as="geometry" />
        </mxCell>
        <mxCell id="81niclgjnJy0ma31-HyY-51" value="" style="rounded=0;whiteSpace=wrap;html=1;align=left;dashed=1;dashPattern=1 4;" vertex="1" parent="81niclgjnJy0ma31-HyY-1">
          <mxGeometry x="580" y="1119" width="370" height="100" as="geometry" />
        </mxCell>
        <mxCell id="81niclgjnJy0ma31-HyY-52" value="&lt;b&gt;Performance&lt;/b&gt;" style="text;html=1;fillColor=none;align=left;verticalAlign=middle;whiteSpace=wrap;rounded=1;fontStyle=0;fontSize=11;glass=1;shadow=0;sketch=0;" vertex="1" parent="81niclgjnJy0ma31-HyY-1">
          <mxGeometry x="590" y="1129" width="80" height="20" as="geometry" />
        </mxCell>
        <mxCell id="81niclgjnJy0ma31-HyY-53" value="&lt;b&gt;#### MAU&lt;/b&gt;" style="text;html=1;fillColor=none;align=center;verticalAlign=middle;whiteSpace=wrap;rounded=1;fontStyle=0;fontSize=11;glass=1;shadow=0;sketch=0;strokeColor=#000000;" vertex="1" parent="81niclgjnJy0ma31-HyY-1">
          <mxGeometry x="600" y="1044" width="160" height="50" as="geometry" />
        </mxCell>
        <mxCell id="81niclgjnJy0ma31-HyY-54" value="&lt;b&gt;#### Estimated UU&lt;/b&gt;" style="text;html=1;fillColor=none;align=center;verticalAlign=middle;whiteSpace=wrap;rounded=1;fontStyle=0;fontSize=11;glass=1;shadow=0;sketch=0;strokeColor=#000000;" vertex="1" parent="81niclgjnJy0ma31-HyY-1">
          <mxGeometry x="780" y="1044" width="160" height="50" as="geometry" />
        </mxCell>
        <mxCell id="81niclgjnJy0ma31-HyY-55" value="&lt;b&gt;##% VCR&lt;/b&gt;" style="text;html=1;fillColor=none;align=center;verticalAlign=middle;whiteSpace=wrap;rounded=1;fontStyle=0;fontSize=11;glass=1;shadow=0;sketch=0;strokeColor=#000000;" vertex="1" parent="81niclgjnJy0ma31-HyY-1">
          <mxGeometry x="595" y="1159" width="57" height="50" as="geometry" />
        </mxCell>
        <mxCell id="81niclgjnJy0ma31-HyY-56" value="&lt;b&gt;##% CTR&lt;/b&gt;" style="text;html=1;fillColor=none;align=center;verticalAlign=middle;whiteSpace=wrap;rounded=1;fontStyle=0;fontSize=11;glass=1;shadow=0;sketch=0;strokeColor=#000000;" vertex="1" parent="81niclgjnJy0ma31-HyY-1">
          <mxGeometry x="689" y="1159" width="57" height="50" as="geometry" />
        </mxCell>
        <mxCell id="81niclgjnJy0ma31-HyY-57" value="&lt;b&gt;##% ER&lt;/b&gt;" style="text;html=1;fillColor=none;align=center;verticalAlign=middle;whiteSpace=wrap;rounded=1;fontStyle=0;fontSize=11;glass=1;shadow=0;sketch=0;strokeColor=#000000;" vertex="1" parent="81niclgjnJy0ma31-HyY-1">
          <mxGeometry x="784" y="1159" width="57" height="50" as="geometry" />
        </mxCell>
        <mxCell id="81niclgjnJy0ma31-HyY-58" value="&lt;span&gt;View details&lt;/span&gt;" style="text;html=1;fillColor=none;align=center;verticalAlign=middle;whiteSpace=wrap;rounded=1;fontStyle=0;fontSize=11;glass=1;shadow=0;sketch=0;strokeColor=#000000;" vertex="1" parent="81niclgjnJy0ma31-HyY-1">
          <mxGeometry x="863" y="1014" width="80" height="20" as="geometry" />
        </mxCell>
        <mxCell id="81niclgjnJy0ma31-HyY-59" value="&lt;span&gt;View details&lt;/span&gt;" style="text;html=1;fillColor=none;align=center;verticalAlign=middle;whiteSpace=wrap;rounded=1;fontStyle=0;fontSize=11;glass=1;shadow=0;sketch=0;strokeColor=#000000;" vertex="1" parent="81niclgjnJy0ma31-HyY-1">
          <mxGeometry x="863" y="1129" width="80" height="20" as="geometry" />
        </mxCell>
        <mxCell id="81niclgjnJy0ma31-HyY-60" value="&lt;b&gt;$## CPM&lt;/b&gt;" style="text;html=1;fillColor=none;align=center;verticalAlign=middle;whiteSpace=wrap;rounded=1;fontStyle=0;fontSize=11;glass=1;shadow=0;sketch=0;strokeColor=#000000;" vertex="1" parent="81niclgjnJy0ma31-HyY-1">
          <mxGeometry x="878" y="1159" width="57" height="50" as="geometry" />
        </mxCell>
        <mxCell id="81niclgjnJy0ma31-HyY-61" value="&lt;b&gt;&lt;font color=&quot;#000000&quot;&gt;Overview&lt;/font&gt;&lt;/b&gt;" style="text;html=1;fillColor=none;align=center;verticalAlign=middle;whiteSpace=wrap;rounded=0;strokeColor=#000000;fontColor=#B3B3B3;fontSize=11;" vertex="1" parent="81niclgjnJy0ma31-HyY-1">
          <mxGeometry x="580" y="970" width="370" height="20" as="geometry" />
        </mxCell>
        <mxCell id="81niclgjnJy0ma31-HyY-62" value="" style="strokeWidth=1;shadow=0;dashed=0;align=center;html=1;shape=mxgraph.mockup.rrect;rSize=10;fillColor=#F1F2F4;strokeColor=#ffffff;strokeWidth=2;rounded=1;glass=1;sketch=0;fontSize=10;fontColor=#B3B3B3;" vertex="1" parent="81niclgjnJy0ma31-HyY-1">
          <mxGeometry x="188" y="1008" width="170" height="20" as="geometry" />
        </mxCell>
        <mxCell id="81niclgjnJy0ma31-HyY-63" value="6M" style="rounded=0;fontSize=12;fontColor=#596780;fontStyle=0;fillColor=none;strokeColor=#ffffff;strokeWidth=2;resizeHeight=1;" vertex="1" parent="81niclgjnJy0ma31-HyY-62">
          <mxGeometry width="60" height="20" relative="1" as="geometry">
            <mxPoint x="110" as="offset" />
          </mxGeometry>
        </mxCell>
        <mxCell id="81niclgjnJy0ma31-HyY-64" value="&lt;font color=&quot;#ffffff&quot;&gt;1M&lt;/font&gt;" style="strokeWidth=1;shadow=0;dashed=0;align=center;html=1;shape=mxgraph.mockup.leftButton;rSize=10;fontSize=12;fontColor=#596780;fontStyle=0;strokeColor=#ffffff;strokeWidth=2;resizeHeight=1;fillColor=#007FFF;" vertex="1" parent="81niclgjnJy0ma31-HyY-62">
          <mxGeometry width="60" height="20" relative="1" as="geometry" />
        </mxCell>
        <mxCell id="81niclgjnJy0ma31-HyY-65" value="3M" style="rounded=0;fontSize=12;fontColor=#596780;fontStyle=0;fillColor=none;strokeColor=#ffffff;strokeWidth=2;resizeHeight=1;" vertex="1" parent="81niclgjnJy0ma31-HyY-62">
          <mxGeometry x="60" width="50" height="20" as="geometry" />
        </mxCell>
        <mxCell id="81niclgjnJy0ma31-HyY-66" value="" style="shape=image;html=1;verticalAlign=top;verticalLabelPosition=bottom;labelBackgroundColor=#ffffff;imageAspect=0;aspect=fixed;image=https://cdn1.iconfinder.com/data/icons/freeline/32/eye_preview_see_seen_view-128.png;rounded=0;shadow=0;glass=1;dashed=1;sketch=0;strokeColor=#000000;fontSize=11;fontColor=#000000;align=center;" vertex="1" parent="81niclgjnJy0ma31-HyY-1">
          <mxGeometry x="176" y="1040.5" width="15" height="15" as="geometry" />
        </mxCell>
        <mxCell id="81niclgjnJy0ma31-HyY-67" value="" style="shape=image;html=1;verticalAlign=top;verticalLabelPosition=bottom;labelBackgroundColor=#ffffff;imageAspect=0;aspect=fixed;image=https://cdn1.iconfinder.com/data/icons/freeline/32/eye_preview_see_seen_view-128.png;rounded=0;shadow=0;glass=1;dashed=1;sketch=0;strokeColor=#000000;fontSize=11;fontColor=#000000;align=center;" vertex="1" parent="81niclgjnJy0ma31-HyY-1">
          <mxGeometry x="176" y="1085" width="15" height="15" as="geometry" />
        </mxCell>
        <mxCell id="81niclgjnJy0ma31-HyY-68" value="" style="shape=image;html=1;verticalAlign=top;verticalLabelPosition=bottom;labelBackgroundColor=#ffffff;imageAspect=0;aspect=fixed;image=https://cdn1.iconfinder.com/data/icons/freeline/32/eye_preview_see_seen_view-128.png;rounded=0;shadow=0;glass=1;dashed=1;sketch=0;strokeColor=#000000;fontSize=11;fontColor=#000000;align=center;" vertex="1" parent="81niclgjnJy0ma31-HyY-1">
          <mxGeometry x="176" y="1137.5" width="15" height="15" as="geometry" />
        </mxCell>
        <mxCell id="81niclgjnJy0ma31-HyY-69" value="" style="shape=image;html=1;verticalAlign=top;verticalLabelPosition=bottom;labelBackgroundColor=#ffffff;imageAspect=0;aspect=fixed;image=https://cdn1.iconfinder.com/data/icons/freeline/32/eye_preview_see_seen_view-128.png;rounded=0;shadow=0;glass=1;dashed=1;sketch=0;strokeColor=#000000;fontSize=11;fontColor=#000000;align=center;" vertex="1" parent="81niclgjnJy0ma31-HyY-1">
          <mxGeometry x="374" y="1121.5" width="15" height="15" as="geometry" />
        </mxCell>
        <mxCell id="81niclgjnJy0ma31-HyY-70" value="" style="shape=image;html=1;verticalAlign=top;verticalLabelPosition=bottom;labelBackgroundColor=#ffffff;imageAspect=0;aspect=fixed;image=https://cdn1.iconfinder.com/data/icons/freeline/32/eye_preview_see_seen_view-128.png;rounded=0;shadow=0;glass=1;dashed=1;sketch=0;strokeColor=#000000;fontSize=11;fontColor=#000000;align=center;" vertex="1" parent="81niclgjnJy0ma31-HyY-1">
          <mxGeometry x="374" y="1151.5" width="15" height="15" as="geometry" />
        </mxCell>
        <mxCell id="81niclgjnJy0ma31-HyY-71" value="Country (Selected dimension)" style="text;html=1;fillColor=#f5f5f5;align=left;verticalAlign=middle;whiteSpace=wrap;rounded=1;strokeColor=#666666;fontColor=#333333;fontStyle=1" vertex="1" parent="81niclgjnJy0ma31-HyY-1">
          <mxGeometry x="253" y="1310" width="207" height="20" as="geometry" />
        </mxCell>
        <mxCell id="81niclgjnJy0ma31-HyY-72" value="VCR" style="text;html=1;fillColor=#f5f5f5;align=left;verticalAlign=middle;whiteSpace=wrap;rounded=1;strokeColor=#666666;fontColor=#333333;fontStyle=1" vertex="1" parent="81niclgjnJy0ma31-HyY-1">
          <mxGeometry x="473" y="1310" width="72" height="125" as="geometry" />
        </mxCell>
        <mxCell id="81niclgjnJy0ma31-HyY-73" value="CTR" style="text;html=1;fillColor=#f5f5f5;align=left;verticalAlign=middle;whiteSpace=wrap;rounded=1;strokeColor=#666666;fontColor=#333333;fontStyle=1" vertex="1" parent="81niclgjnJy0ma31-HyY-1">
          <mxGeometry x="551" y="1310" width="72" height="125" as="geometry" />
        </mxCell>
        <mxCell id="81niclgjnJy0ma31-HyY-74" value="Revenue" style="text;html=1;fillColor=#f5f5f5;align=left;verticalAlign=middle;whiteSpace=wrap;rounded=1;strokeColor=#666666;fontColor=#333333;fontStyle=1" vertex="1" parent="81niclgjnJy0ma31-HyY-1">
          <mxGeometry x="707" y="1310" width="72" height="125" as="geometry" />
        </mxCell>
        <mxCell id="81niclgjnJy0ma31-HyY-75" value="Ad Capacity" style="text;html=1;fillColor=#f5f5f5;align=left;verticalAlign=middle;whiteSpace=wrap;rounded=1;strokeColor=#666666;fontColor=#333333;fontStyle=1" vertex="1" parent="81niclgjnJy0ma31-HyY-1">
          <mxGeometry x="785" y="1310" width="72" height="125" as="geometry" />
        </mxCell>
        <mxCell id="81niclgjnJy0ma31-HyY-76" value="Imps." style="text;html=1;fillColor=#f5f5f5;align=left;verticalAlign=middle;whiteSpace=wrap;rounded=1;strokeColor=#666666;fontColor=#333333;fontStyle=1" vertex="1" parent="81niclgjnJy0ma31-HyY-1">
          <mxGeometry x="863" y="1310" width="72" height="125" as="geometry" />
        </mxCell>
        <mxCell id="81niclgjnJy0ma31-HyY-77" value="Views" style="text;html=1;fillColor=#f5f5f5;align=left;verticalAlign=middle;whiteSpace=wrap;rounded=1;strokeColor=#666666;fontColor=#333333;fontStyle=1" vertex="1" parent="81niclgjnJy0ma31-HyY-1">
          <mxGeometry x="941" y="1310" width="72" height="125" as="geometry" />
        </mxCell>
        <mxCell id="81niclgjnJy0ma31-HyY-78" value="Publisher" style="text;html=1;fillColor=#f5f5f5;align=left;verticalAlign=middle;whiteSpace=wrap;rounded=1;strokeColor=#666666;fontColor=#333333;fontStyle=1" vertex="1" parent="81niclgjnJy0ma31-HyY-1">
          <mxGeometry x="253" y="1335" width="207" height="20" as="geometry" />
        </mxCell>
        <mxCell id="81niclgjnJy0ma31-HyY-79" value="CPM/CPV cost" style="text;html=1;fillColor=#f5f5f5;align=left;verticalAlign=middle;whiteSpace=wrap;rounded=1;strokeColor=#666666;fontColor=#333333;fontStyle=1" vertex="1" parent="81niclgjnJy0ma31-HyY-1">
          <mxGeometry x="629" y="1310" width="72" height="125" as="geometry" />
        </mxCell>
        <mxCell id="81niclgjnJy0ma31-HyY-80" value="Ordenar por:" style="text;html=1;strokeColor=none;fillColor=none;align=center;verticalAlign=middle;whiteSpace=wrap;rounded=0;fontSize=7;" vertex="1" parent="81niclgjnJy0ma31-HyY-1">
          <mxGeometry x="850" y="1270" width="63" height="20" as="geometry" />
        </mxCell>
        <mxCell id="81niclgjnJy0ma31-HyY-81" value="CPM/CPV" style="rounded=1;fillColor=#F1F2F4;strokeColor=none;html=1;fontColor=#596780;align=left;fontSize=12;spacingLeft=10" vertex="1" parent="81niclgjnJy0ma31-HyY-1">
          <mxGeometry x="913" y="1270" width="100" height="20" as="geometry" />
        </mxCell>
        <mxCell id="81niclgjnJy0ma31-HyY-82" value="" style="shape=triangle;direction=south;fillColor=#596780;strokeColor=none;html=1" vertex="1" parent="81niclgjnJy0ma31-HyY-81">
          <mxGeometry x="1" y="0.5" width="12" height="6" relative="1" as="geometry">
            <mxPoint x="-20" y="-3" as="offset" />
          </mxGeometry>
        </mxCell>
        <mxCell id="81niclgjnJy0ma31-HyY-83" value="Buscar Pub/App/Channel" style="text;html=1;fillColor=none;align=center;verticalAlign=middle;whiteSpace=wrap;rounded=1;fontSize=7;strokeColor=#000000;glass=0;" vertex="1" parent="81niclgjnJy0ma31-HyY-1">
          <mxGeometry x="253" y="1270" width="207" height="20" as="geometry" />
        </mxCell>
        <mxCell id="81niclgjnJy0ma31-HyY-84" value="Predictive" style="text;html=1;strokeColor=none;fillColor=none;align=center;verticalAlign=middle;whiteSpace=wrap;rounded=0;fontSize=14;fontStyle=1" vertex="1" parent="81niclgjnJy0ma31-HyY-1">
          <mxGeometry x="1657" y="930" width="40" height="20" as="geometry" />
        </mxCell>
        <mxCell id="81niclgjnJy0ma31-HyY-85" value="Historic" style="text;html=1;strokeColor=none;fillColor=none;align=center;verticalAlign=middle;whiteSpace=wrap;rounded=0;fontSize=14;fontStyle=1" vertex="1" parent="81niclgjnJy0ma31-HyY-1">
          <mxGeometry x="565" y="935" width="40" height="20" as="geometry" />
        </mxCell>
        <mxCell id="81niclgjnJy0ma31-HyY-92" value="tt" style="whiteSpace=wrap;html=1;rounded=0;shadow=0;glass=1;dashed=1;sketch=0;strokeColor=#000000;fontSize=11;fontColor=#000000;align=center;" vertex="1" parent="81niclgjnJy0ma31-HyY-1">
          <mxGeometry x="1250" y="963.5" width="870" height="591" as="geometry" />
        </mxCell>
        <mxCell id="81niclgjnJy0ma31-HyY-93" value="" style="rounded=0;whiteSpace=wrap;html=1;align=left;dashed=1;dashPattern=1 4;" vertex="1" parent="81niclgjnJy0ma31-HyY-1">
          <mxGeometry x="1260" y="973.5" width="394" height="250" as="geometry" />
        </mxCell>
        <mxCell id="81niclgjnJy0ma31-HyY-94" value="" style="rounded=0;whiteSpace=wrap;html=1;align=left;dashed=1;dashPattern=1 4;" vertex="1" parent="81niclgjnJy0ma31-HyY-1">
          <mxGeometry x="1460" y="1083.5" width="194" height="100" as="geometry" />
        </mxCell>
        <mxCell id="81niclgjnJy0ma31-HyY-95" value="" style="rounded=0;whiteSpace=wrap;html=1;align=left;dashed=1;dashPattern=1 4;" vertex="1" parent="81niclgjnJy0ma31-HyY-1">
          <mxGeometry x="1260" y="973.5" width="194" height="210" as="geometry" />
        </mxCell>
        <mxCell id="81niclgjnJy0ma31-HyY-96" value="" style="rounded=0;whiteSpace=wrap;html=1;align=left;dashed=1;dashPattern=1 4;" vertex="1" parent="81niclgjnJy0ma31-HyY-1">
          <mxGeometry x="1460" y="973.5" width="194" height="100" as="geometry" />
        </mxCell>
        <mxCell id="81niclgjnJy0ma31-HyY-97" value="&lt;b&gt;Targeting&lt;/b&gt;" style="text;html=1;strokeColor=none;fillColor=none;align=center;verticalAlign=middle;whiteSpace=wrap;rounded=0;" vertex="1" parent="81niclgjnJy0ma31-HyY-1">
          <mxGeometry x="1294" y="973.5" width="80" height="20" as="geometry" />
        </mxCell>
        <mxCell id="81niclgjnJy0ma31-HyY-98" value="Select Countries" style="text;html=1;fillColor=none;align=left;verticalAlign=middle;whiteSpace=wrap;rounded=1;strokeColor=#000000;fontColor=#B3B3B3;fontSize=11;" vertex="1" parent="81niclgjnJy0ma31-HyY-1">
          <mxGeometry x="1287" y="1041.5" width="160" height="20" as="geometry" />
        </mxCell>
        <mxCell id="81niclgjnJy0ma31-HyY-99" value="&lt;b&gt;Budget&lt;/b&gt;" style="text;html=1;strokeColor=none;fillColor=none;align=center;verticalAlign=middle;whiteSpace=wrap;rounded=0;" vertex="1" parent="81niclgjnJy0ma31-HyY-1">
          <mxGeometry x="1484" y="973.5" width="80" height="20" as="geometry" />
        </mxCell>
        <mxCell id="81niclgjnJy0ma31-HyY-100" value="&lt;b&gt;Creative&lt;/b&gt;" style="text;html=1;strokeColor=none;fillColor=none;align=center;verticalAlign=middle;whiteSpace=wrap;rounded=0;" vertex="1" parent="81niclgjnJy0ma31-HyY-1">
          <mxGeometry x="1480" y="1088.5" width="80" height="20" as="geometry" />
        </mxCell>
        <mxCell id="81niclgjnJy0ma31-HyY-101" value="Select Amount" style="text;html=1;fillColor=none;align=left;verticalAlign=middle;whiteSpace=wrap;rounded=1;strokeColor=#000000;fontStyle=0;fontColor=#B3B3B3;fontSize=11;glass=1;shadow=0;sketch=0;" vertex="1" parent="81niclgjnJy0ma31-HyY-1">
          <mxGeometry x="1484" y="1013.5" width="160" height="20" as="geometry" />
        </mxCell>
        <mxCell id="81niclgjnJy0ma31-HyY-102" value="Model" style="rounded=1;fillColor=#F1F2F4;strokeColor=none;html=1;fontColor=#596780;align=left;fontSize=12;spacingLeft=10" vertex="1" parent="81niclgjnJy0ma31-HyY-1">
          <mxGeometry x="1484" y="1043.5" width="70" height="20" as="geometry" />
        </mxCell>
        <mxCell id="81niclgjnJy0ma31-HyY-103" value="" style="shape=triangle;direction=south;fillColor=#596780;strokeColor=none;html=1" vertex="1" parent="81niclgjnJy0ma31-HyY-102">
          <mxGeometry x="1" y="0.5" width="12" height="6" relative="1" as="geometry">
            <mxPoint x="-20" y="-3" as="offset" />
          </mxGeometry>
        </mxCell>
        <mxCell id="81niclgjnJy0ma31-HyY-104" value="Select Formats" style="rounded=1;fillColor=#F1F2F4;strokeColor=none;html=1;fontColor=#596780;align=left;fontSize=12;spacingLeft=10" vertex="1" parent="81niclgjnJy0ma31-HyY-1">
          <mxGeometry x="1484" y="1153.5" width="164" height="20" as="geometry" />
        </mxCell>
        <mxCell id="81niclgjnJy0ma31-HyY-105" value="" style="shape=triangle;direction=south;fillColor=#596780;strokeColor=none;html=1" vertex="1" parent="81niclgjnJy0ma31-HyY-104">
          <mxGeometry x="1" y="0.5" width="12" height="6" relative="1" as="geometry">
            <mxPoint x="-20" y="-3" as="offset" />
          </mxGeometry>
        </mxCell>
        <mxCell id="81niclgjnJy0ma31-HyY-106" value="Categories/Passion Point" style="rounded=1;fillColor=#F1F2F4;strokeColor=none;html=1;fontColor=#596780;align=left;fontSize=12;spacingLeft=10" vertex="1" parent="81niclgjnJy0ma31-HyY-1">
          <mxGeometry x="1287" y="1139.5" width="160" height="20" as="geometry" />
        </mxCell>
        <mxCell id="81niclgjnJy0ma31-HyY-107" value="" style="shape=triangle;direction=south;fillColor=#596780;strokeColor=none;html=1" vertex="1" parent="81niclgjnJy0ma31-HyY-106">
          <mxGeometry x="1" y="0.5" width="12" height="6" relative="1" as="geometry">
            <mxPoint x="-20" y="-3" as="offset" />
          </mxGeometry>
        </mxCell>
        <mxCell id="81niclgjnJy0ma31-HyY-108" value="" style="strokeWidth=1;shadow=0;dashed=0;align=center;html=1;shape=mxgraph.mockup.rrect;rSize=10;fillColor=#F1F2F4;strokeColor=#ffffff;strokeWidth=2;rounded=1;glass=1;sketch=0;fontSize=10;fontColor=#B3B3B3;" vertex="1" parent="81niclgjnJy0ma31-HyY-1">
          <mxGeometry x="1287" y="1088.5" width="160" height="20" as="geometry" />
        </mxCell>
        <mxCell id="81niclgjnJy0ma31-HyY-109" value="Girls" style="rounded=0;fontSize=12;fontColor=#596780;fontStyle=0;fillColor=none;strokeColor=#ffffff;strokeWidth=2;resizeHeight=1;" vertex="1" parent="81niclgjnJy0ma31-HyY-108">
          <mxGeometry width="80" height="20" relative="1" as="geometry">
            <mxPoint x="80" as="offset" />
          </mxGeometry>
        </mxCell>
        <mxCell id="81niclgjnJy0ma31-HyY-110" value="Boys" style="strokeWidth=1;shadow=0;dashed=0;align=center;html=1;shape=mxgraph.mockup.leftButton;rSize=10;fontSize=12;fontColor=#596780;fontStyle=0;fillColor=none;strokeColor=#ffffff;strokeWidth=2;resizeHeight=1;" vertex="1" parent="81niclgjnJy0ma31-HyY-108">
          <mxGeometry width="80" height="20" relative="1" as="geometry" />
        </mxCell>
        <mxCell id="81niclgjnJy0ma31-HyY-111" value="" style="dashed=0;verticalLabelPosition=bottom;verticalAlign=top;align=center;shape=mxgraph.gmdl.slider2;barPos=0;strokeColor=#bbbbbb;opacity=100;strokeWidth=2;handleSize=10;shadow=0;rounded=1;glass=1;sketch=0;fontSize=10;fontColor=#B3B3B3;" vertex="1" parent="81niclgjnJy0ma31-HyY-1">
          <mxGeometry x="1288" y="1118.5" width="160" height="10" as="geometry" />
        </mxCell>
        <mxCell id="81niclgjnJy0ma31-HyY-112" value="Age &amp;amp; Gender" style="text;html=1;fillColor=none;align=left;verticalAlign=middle;whiteSpace=wrap;rounded=1;fontStyle=1" vertex="1" parent="81niclgjnJy0ma31-HyY-1">
          <mxGeometry x="1287" y="1068.5" width="160" height="20" as="geometry" />
        </mxCell>
        <mxCell id="81niclgjnJy0ma31-HyY-113" value="0" style="text;html=1;fillColor=none;align=left;verticalAlign=middle;whiteSpace=wrap;rounded=1;fontSize=7;" vertex="1" parent="81niclgjnJy0ma31-HyY-1">
          <mxGeometry x="1287" y="1127.5" width="10" height="10" as="geometry" />
        </mxCell>
        <mxCell id="81niclgjnJy0ma31-HyY-114" value="18" style="text;html=1;fillColor=none;align=left;verticalAlign=middle;whiteSpace=wrap;rounded=1;fontSize=7;" vertex="1" parent="81niclgjnJy0ma31-HyY-1">
          <mxGeometry x="1437" y="1127.5" width="10" height="10" as="geometry" />
        </mxCell>
        <mxCell id="81niclgjnJy0ma31-HyY-115" value="Platform" style="rounded=1;fillColor=#F1F2F4;strokeColor=none;html=1;fontColor=#596780;align=left;fontSize=12;spacingLeft=10" vertex="1" parent="81niclgjnJy0ma31-HyY-1">
          <mxGeometry x="1484" y="1123.5" width="80" height="20" as="geometry" />
        </mxCell>
        <mxCell id="81niclgjnJy0ma31-HyY-116" value="" style="shape=triangle;direction=south;fillColor=#596780;strokeColor=none;html=1" vertex="1" parent="81niclgjnJy0ma31-HyY-115">
          <mxGeometry x="1" y="0.5" width="12" height="6" relative="1" as="geometry">
            <mxPoint x="-20" y="-3" as="offset" />
          </mxGeometry>
        </mxCell>
        <mxCell id="81niclgjnJy0ma31-HyY-117" value="Device" style="rounded=1;fillColor=#F1F2F4;strokeColor=none;html=1;fontColor=#596780;align=left;fontSize=12;spacingLeft=10" vertex="1" parent="81niclgjnJy0ma31-HyY-1">
          <mxGeometry x="1568" y="1123.5" width="80" height="20" as="geometry" />
        </mxCell>
        <mxCell id="81niclgjnJy0ma31-HyY-118" value="" style="shape=triangle;direction=south;fillColor=#596780;strokeColor=none;html=1" vertex="1" parent="81niclgjnJy0ma31-HyY-117">
          <mxGeometry x="1" y="0.5" width="12" height="6" relative="1" as="geometry">
            <mxPoint x="-20" y="-3" as="offset" />
          </mxGeometry>
        </mxCell>
        <mxCell id="81niclgjnJy0ma31-HyY-119" value="" style="rounded=0;whiteSpace=wrap;html=1;align=left;dashed=1;dashPattern=1 4;" vertex="1" parent="81niclgjnJy0ma31-HyY-1">
          <mxGeometry x="1260" y="1263.5" width="850" height="251" as="geometry" />
        </mxCell>
        <mxCell id="81niclgjnJy0ma31-HyY-120" value="App name" style="text;html=1;fillColor=#f5f5f5;align=left;verticalAlign=middle;whiteSpace=wrap;rounded=1;strokeColor=#666666;fontColor=#333333;fontStyle=1" vertex="1" parent="81niclgjnJy0ma31-HyY-1">
          <mxGeometry x="1343" y="1361.5" width="207" height="20" as="geometry" />
        </mxCell>
        <mxCell id="81niclgjnJy0ma31-HyY-121" value="Channel name" style="text;html=1;fillColor=#f5f5f5;align=left;verticalAlign=middle;whiteSpace=wrap;rounded=1;strokeColor=#666666;fontColor=#333333;fontStyle=1" vertex="1" parent="81niclgjnJy0ma31-HyY-1">
          <mxGeometry x="1343" y="1451.5" width="207" height="20" as="geometry" />
        </mxCell>
        <mxCell id="81niclgjnJy0ma31-HyY-122" value="App name" style="text;html=1;fillColor=#f5f5f5;align=left;verticalAlign=middle;whiteSpace=wrap;rounded=1;strokeColor=#666666;fontColor=#333333;fontStyle=1" vertex="1" parent="81niclgjnJy0ma31-HyY-1">
          <mxGeometry x="1343" y="1481.5" width="207" height="20" as="geometry" />
        </mxCell>
        <mxCell id="81niclgjnJy0ma31-HyY-123" value="" style="pointerEvents=1;shadow=0;dashed=0;html=1;strokeColor=none;fillColor=#434445;aspect=fixed;labelPosition=center;verticalLabelPosition=bottom;verticalAlign=top;align=center;outlineConnect=0;shape=mxgraph.vvd.app;rounded=1;glass=1;dashPattern=1 4;sketch=0;fontSize=8;fontColor=#000000;" vertex="1" parent="81niclgjnJy0ma31-HyY-1">
          <mxGeometry x="1314" y="1339.5" width="20" height="20" as="geometry" />
        </mxCell>
        <mxCell id="81niclgjnJy0ma31-HyY-124" value="" style="pointerEvents=1;shadow=0;dashed=0;html=1;strokeColor=none;fillColor=#434445;aspect=fixed;labelPosition=center;verticalLabelPosition=bottom;verticalAlign=top;align=center;outlineConnect=0;shape=mxgraph.vvd.app;rounded=1;glass=1;dashPattern=1 4;sketch=0;fontSize=8;fontColor=#000000;" vertex="1" parent="81niclgjnJy0ma31-HyY-1">
          <mxGeometry x="1313" y="1481.5" width="20" height="20" as="geometry" />
        </mxCell>
        <mxCell id="81niclgjnJy0ma31-HyY-125" value="" style="shape=image;html=1;verticalAlign=top;verticalLabelPosition=bottom;labelBackgroundColor=#ffffff;imageAspect=0;aspect=fixed;image=https://cdn4.iconfinder.com/data/icons/ionicons/512/icon-social-youtube-outline-128.png;rounded=1;shadow=0;glass=1;dashed=1;dashPattern=1 4;sketch=0;strokeColor=#000000;fontSize=8;fontColor=#000000;align=left;" vertex="1" parent="81niclgjnJy0ma31-HyY-1">
          <mxGeometry x="1313" y="1451.5" width="20" height="20" as="geometry" />
        </mxCell>
        <mxCell id="81niclgjnJy0ma31-HyY-126" value="Format 1" style="text;html=1;fillColor=#f5f5f5;align=left;verticalAlign=middle;whiteSpace=wrap;rounded=1;strokeColor=#666666;fontColor=#333333;" vertex="1" parent="81niclgjnJy0ma31-HyY-1">
          <mxGeometry x="1343" y="1381.5" width="207" height="20" as="geometry" />
        </mxCell>
        <mxCell id="81niclgjnJy0ma31-HyY-127" value="Format 2" style="text;html=1;fillColor=#f5f5f5;align=left;verticalAlign=middle;whiteSpace=wrap;rounded=1;strokeColor=#666666;fontColor=#333333;" vertex="1" parent="81niclgjnJy0ma31-HyY-1">
          <mxGeometry x="1343" y="1401.5" width="207" height="20" as="geometry" />
        </mxCell>
        <mxCell id="81niclgjnJy0ma31-HyY-128" value="Format 3" style="text;html=1;fillColor=#f5f5f5;align=left;verticalAlign=middle;whiteSpace=wrap;rounded=1;strokeColor=#666666;fontColor=#333333;" vertex="1" parent="81niclgjnJy0ma31-HyY-1">
          <mxGeometry x="1343" y="1421.5" width="207" height="20" as="geometry" />
        </mxCell>
        <mxCell id="81niclgjnJy0ma31-HyY-129" value="" style="shape=image;html=1;verticalAlign=top;verticalLabelPosition=bottom;labelBackgroundColor=#ffffff;imageAspect=0;aspect=fixed;image=https://cdn0.iconfinder.com/data/icons/mobile-basic-vol-1/32/Circle_Minus-128.png;rounded=1;shadow=0;glass=1;dashed=1;dashPattern=1 4;sketch=0;strokeColor=#000000;fontSize=8;fontColor=#000000;align=left;" vertex="1" parent="81niclgjnJy0ma31-HyY-1">
          <mxGeometry x="1287" y="1314.5" width="20" height="20" as="geometry" />
        </mxCell>
        <mxCell id="81niclgjnJy0ma31-HyY-130" value="" style="shape=image;html=1;verticalAlign=top;verticalLabelPosition=bottom;labelBackgroundColor=#ffffff;imageAspect=0;aspect=fixed;image=https://cdn0.iconfinder.com/data/icons/mobile-basic-vol-1/32/Circle_Plus-128.png;rounded=1;shadow=0;glass=1;dashed=1;dashPattern=1 4;sketch=0;strokeColor=#000000;fontSize=8;fontColor=#000000;align=left;" vertex="1" parent="81niclgjnJy0ma31-HyY-1">
          <mxGeometry x="1287" y="1451.5" width="20" height="20" as="geometry" />
        </mxCell>
        <mxCell id="81niclgjnJy0ma31-HyY-131" value="" style="shape=image;html=1;verticalAlign=top;verticalLabelPosition=bottom;labelBackgroundColor=#ffffff;imageAspect=0;aspect=fixed;image=https://cdn0.iconfinder.com/data/icons/mobile-basic-vol-1/32/Circle_Plus-128.png;rounded=1;shadow=0;glass=1;dashed=1;dashPattern=1 4;sketch=0;strokeColor=#000000;fontSize=8;fontColor=#000000;align=left;" vertex="1" parent="81niclgjnJy0ma31-HyY-1">
          <mxGeometry x="1287" y="1481.5" width="20" height="20" as="geometry" />
        </mxCell>
        <mxCell id="81niclgjnJy0ma31-HyY-132" value="&lt;span&gt;Export List&lt;/span&gt;" style="text;html=1;fillColor=none;align=center;verticalAlign=middle;whiteSpace=wrap;rounded=1;fontStyle=0;fontSize=11;glass=1;shadow=0;sketch=0;strokeColor=#000000;" vertex="1" parent="81niclgjnJy0ma31-HyY-1">
          <mxGeometry x="2013" y="1524.5" width="80" height="20" as="geometry" />
        </mxCell>
        <mxCell id="81niclgjnJy0ma31-HyY-133" value="&lt;b&gt;&lt;font color=&quot;#000000&quot;&gt;See results&lt;/font&gt;&lt;/b&gt;" style="text;html=1;fillColor=none;align=center;verticalAlign=middle;whiteSpace=wrap;rounded=1;strokeColor=#000000;fontColor=#B3B3B3;fontSize=11;" vertex="1" parent="81niclgjnJy0ma31-HyY-1">
          <mxGeometry x="1294" y="1193.5" width="350" height="20" as="geometry" />
        </mxCell>
        <mxCell id="81niclgjnJy0ma31-HyY-134" value="" style="shape=image;html=1;verticalAlign=top;verticalLabelPosition=bottom;labelBackgroundColor=#ffffff;imageAspect=0;aspect=fixed;image=https://cdn1.iconfinder.com/data/icons/freeline/32/eye_preview_see_seen_view-128.png;rounded=0;shadow=0;glass=1;dashed=1;sketch=0;strokeColor=#000000;fontSize=11;fontColor=#000000;align=center;" vertex="1" parent="81niclgjnJy0ma31-HyY-1">
          <mxGeometry x="1530" y="1384" width="15" height="15" as="geometry" />
        </mxCell>
        <mxCell id="81niclgjnJy0ma31-HyY-135" value="" style="shape=image;html=1;verticalAlign=top;verticalLabelPosition=bottom;labelBackgroundColor=#ffffff;imageAspect=0;aspect=fixed;image=https://cdn1.iconfinder.com/data/icons/freeline/32/eye_preview_see_seen_view-128.png;rounded=0;shadow=0;glass=1;dashed=1;sketch=0;strokeColor=#000000;fontSize=11;fontColor=#000000;align=center;" vertex="1" parent="81niclgjnJy0ma31-HyY-1">
          <mxGeometry x="1530" y="1404" width="15" height="15" as="geometry" />
        </mxCell>
        <mxCell id="81niclgjnJy0ma31-HyY-136" value="" style="shape=image;html=1;verticalAlign=top;verticalLabelPosition=bottom;labelBackgroundColor=#ffffff;imageAspect=0;aspect=fixed;image=https://cdn1.iconfinder.com/data/icons/freeline/32/eye_preview_see_seen_view-128.png;rounded=0;shadow=0;glass=1;dashed=1;sketch=0;strokeColor=#000000;fontSize=11;fontColor=#000000;align=center;" vertex="1" parent="81niclgjnJy0ma31-HyY-1">
          <mxGeometry x="1530" y="1424" width="15" height="15" as="geometry" />
        </mxCell>
        <mxCell id="81niclgjnJy0ma31-HyY-137" value="&lt;b&gt;&lt;font color=&quot;#000000&quot;&gt;Results&lt;/font&gt;&lt;/b&gt;" style="text;html=1;fillColor=none;align=center;verticalAlign=middle;whiteSpace=wrap;rounded=0;strokeColor=#000000;fontColor=#B3B3B3;fontSize=11;" vertex="1" parent="81niclgjnJy0ma31-HyY-1">
          <mxGeometry x="1260" y="1243.5" width="850" height="20" as="geometry" />
        </mxCell>
        <mxCell id="81niclgjnJy0ma31-HyY-138" value="" style="rounded=0;whiteSpace=wrap;html=1;align=left;dashed=1;dashPattern=1 4;" vertex="1" parent="81niclgjnJy0ma31-HyY-1">
          <mxGeometry x="1670" y="974.5" width="370" height="249" as="geometry" />
        </mxCell>
        <mxCell id="81niclgjnJy0ma31-HyY-139" value="" style="rounded=0;whiteSpace=wrap;html=1;align=left;dashed=1;dashPattern=1 4;" vertex="1" parent="81niclgjnJy0ma31-HyY-1">
          <mxGeometry x="1670" y="1008.5" width="370" height="100" as="geometry" />
        </mxCell>
        <mxCell id="81niclgjnJy0ma31-HyY-140" value="&lt;b&gt;Reach&lt;/b&gt;" style="text;html=1;fillColor=none;align=left;verticalAlign=middle;whiteSpace=wrap;rounded=1;fontStyle=0;fontSize=11;glass=1;shadow=0;sketch=0;" vertex="1" parent="81niclgjnJy0ma31-HyY-1">
          <mxGeometry x="1680" y="1018.5" width="80" height="20" as="geometry" />
        </mxCell>
        <mxCell id="81niclgjnJy0ma31-HyY-141" value="" style="rounded=0;whiteSpace=wrap;html=1;align=left;dashed=1;dashPattern=1 4;" vertex="1" parent="81niclgjnJy0ma31-HyY-1">
          <mxGeometry x="1670" y="1123.5" width="370" height="100" as="geometry" />
        </mxCell>
        <mxCell id="81niclgjnJy0ma31-HyY-142" value="&lt;b&gt;Performance&lt;/b&gt;" style="text;html=1;fillColor=none;align=left;verticalAlign=middle;whiteSpace=wrap;rounded=1;fontStyle=0;fontSize=11;glass=1;shadow=0;sketch=0;" vertex="1" parent="81niclgjnJy0ma31-HyY-1">
          <mxGeometry x="1680" y="1133.5" width="80" height="20" as="geometry" />
        </mxCell>
        <mxCell id="81niclgjnJy0ma31-HyY-143" value="&lt;b&gt;#### MAU&lt;/b&gt;" style="text;html=1;fillColor=none;align=center;verticalAlign=middle;whiteSpace=wrap;rounded=1;fontStyle=0;fontSize=11;glass=1;shadow=0;sketch=0;strokeColor=#000000;" vertex="1" parent="81niclgjnJy0ma31-HyY-1">
          <mxGeometry x="1690" y="1048.5" width="160" height="50" as="geometry" />
        </mxCell>
        <mxCell id="81niclgjnJy0ma31-HyY-144" value="&lt;b&gt;#### Estimated UU&lt;/b&gt;" style="text;html=1;fillColor=none;align=center;verticalAlign=middle;whiteSpace=wrap;rounded=1;fontStyle=0;fontSize=11;glass=1;shadow=0;sketch=0;strokeColor=#000000;" vertex="1" parent="81niclgjnJy0ma31-HyY-1">
          <mxGeometry x="1870" y="1048.5" width="160" height="50" as="geometry" />
        </mxCell>
        <mxCell id="81niclgjnJy0ma31-HyY-145" value="&lt;b&gt;##% VCR&lt;/b&gt;" style="text;html=1;fillColor=none;align=center;verticalAlign=middle;whiteSpace=wrap;rounded=1;fontStyle=0;fontSize=11;glass=1;shadow=0;sketch=0;strokeColor=#000000;" vertex="1" parent="81niclgjnJy0ma31-HyY-1">
          <mxGeometry x="1685" y="1163.5" width="57" height="50" as="geometry" />
        </mxCell>
        <mxCell id="81niclgjnJy0ma31-HyY-146" value="&lt;b&gt;##% CTR&lt;/b&gt;" style="text;html=1;fillColor=none;align=center;verticalAlign=middle;whiteSpace=wrap;rounded=1;fontStyle=0;fontSize=11;glass=1;shadow=0;sketch=0;strokeColor=#000000;" vertex="1" parent="81niclgjnJy0ma31-HyY-1">
          <mxGeometry x="1779" y="1163.5" width="57" height="50" as="geometry" />
        </mxCell>
        <mxCell id="81niclgjnJy0ma31-HyY-147" value="&lt;b&gt;##% ER&lt;/b&gt;" style="text;html=1;fillColor=none;align=center;verticalAlign=middle;whiteSpace=wrap;rounded=1;fontStyle=0;fontSize=11;glass=1;shadow=0;sketch=0;strokeColor=#000000;" vertex="1" parent="81niclgjnJy0ma31-HyY-1">
          <mxGeometry x="1874" y="1163.5" width="57" height="50" as="geometry" />
        </mxCell>
        <mxCell id="81niclgjnJy0ma31-HyY-148" value="&lt;span&gt;View details&lt;/span&gt;" style="text;html=1;fillColor=none;align=center;verticalAlign=middle;whiteSpace=wrap;rounded=1;fontStyle=0;fontSize=11;glass=1;shadow=0;sketch=0;strokeColor=#000000;" vertex="1" parent="81niclgjnJy0ma31-HyY-1">
          <mxGeometry x="1953" y="1018.5" width="80" height="20" as="geometry" />
        </mxCell>
        <mxCell id="81niclgjnJy0ma31-HyY-149" value="&lt;span&gt;View details&lt;/span&gt;" style="text;html=1;fillColor=none;align=center;verticalAlign=middle;whiteSpace=wrap;rounded=1;fontStyle=0;fontSize=11;glass=1;shadow=0;sketch=0;strokeColor=#000000;" vertex="1" parent="81niclgjnJy0ma31-HyY-1">
          <mxGeometry x="1953" y="1133.5" width="80" height="20" as="geometry" />
        </mxCell>
        <mxCell id="81niclgjnJy0ma31-HyY-150" value="&lt;b&gt;$## CPM&lt;/b&gt;" style="text;html=1;fillColor=none;align=center;verticalAlign=middle;whiteSpace=wrap;rounded=1;fontStyle=0;fontSize=11;glass=1;shadow=0;sketch=0;strokeColor=#000000;" vertex="1" parent="81niclgjnJy0ma31-HyY-1">
          <mxGeometry x="1968" y="1163.5" width="57" height="50" as="geometry" />
        </mxCell>
        <mxCell id="81niclgjnJy0ma31-HyY-151" value="&lt;b&gt;&lt;font color=&quot;#000000&quot;&gt;Overview&lt;/font&gt;&lt;/b&gt;" style="text;html=1;fillColor=none;align=center;verticalAlign=middle;whiteSpace=wrap;rounded=0;strokeColor=#000000;fontColor=#B3B3B3;fontSize=11;" vertex="1" parent="81niclgjnJy0ma31-HyY-1">
          <mxGeometry x="1670" y="974.5" width="370" height="20" as="geometry" />
        </mxCell>
        <mxCell id="81niclgjnJy0ma31-HyY-152" value="" style="strokeWidth=1;shadow=0;dashed=0;align=center;html=1;shape=mxgraph.mockup.rrect;rSize=10;fillColor=#F1F2F4;strokeColor=#ffffff;strokeWidth=2;rounded=1;glass=1;sketch=0;fontSize=10;fontColor=#B3B3B3;" vertex="1" parent="81niclgjnJy0ma31-HyY-1">
          <mxGeometry x="1278" y="1012.5" width="170" height="20" as="geometry" />
        </mxCell>
        <mxCell id="81niclgjnJy0ma31-HyY-153" value="6M" style="rounded=0;fontSize=12;fontColor=#596780;fontStyle=0;fillColor=none;strokeColor=#ffffff;strokeWidth=2;resizeHeight=1;" vertex="1" parent="81niclgjnJy0ma31-HyY-152">
          <mxGeometry width="60" height="20" relative="1" as="geometry">
            <mxPoint x="110" as="offset" />
          </mxGeometry>
        </mxCell>
        <mxCell id="81niclgjnJy0ma31-HyY-154" value="&lt;font color=&quot;#ffffff&quot;&gt;1M&lt;/font&gt;" style="strokeWidth=1;shadow=0;dashed=0;align=center;html=1;shape=mxgraph.mockup.leftButton;rSize=10;fontSize=12;fontColor=#596780;fontStyle=0;strokeColor=#ffffff;strokeWidth=2;resizeHeight=1;fillColor=#007FFF;" vertex="1" parent="81niclgjnJy0ma31-HyY-152">
          <mxGeometry width="60" height="20" relative="1" as="geometry" />
        </mxCell>
        <mxCell id="81niclgjnJy0ma31-HyY-155" value="3M" style="rounded=0;fontSize=12;fontColor=#596780;fontStyle=0;fillColor=none;strokeColor=#ffffff;strokeWidth=2;resizeHeight=1;" vertex="1" parent="81niclgjnJy0ma31-HyY-152">
          <mxGeometry x="60" width="50" height="20" as="geometry" />
        </mxCell>
        <mxCell id="81niclgjnJy0ma31-HyY-156" value="" style="shape=image;html=1;verticalAlign=top;verticalLabelPosition=bottom;labelBackgroundColor=#ffffff;imageAspect=0;aspect=fixed;image=https://cdn1.iconfinder.com/data/icons/freeline/32/eye_preview_see_seen_view-128.png;rounded=0;shadow=0;glass=1;dashed=1;sketch=0;strokeColor=#000000;fontSize=11;fontColor=#000000;align=center;" vertex="1" parent="81niclgjnJy0ma31-HyY-1">
          <mxGeometry x="1266" y="1045" width="15" height="15" as="geometry" />
        </mxCell>
        <mxCell id="81niclgjnJy0ma31-HyY-157" value="" style="shape=image;html=1;verticalAlign=top;verticalLabelPosition=bottom;labelBackgroundColor=#ffffff;imageAspect=0;aspect=fixed;image=https://cdn1.iconfinder.com/data/icons/freeline/32/eye_preview_see_seen_view-128.png;rounded=0;shadow=0;glass=1;dashed=1;sketch=0;strokeColor=#000000;fontSize=11;fontColor=#000000;align=center;" vertex="1" parent="81niclgjnJy0ma31-HyY-1">
          <mxGeometry x="1266" y="1089.5" width="15" height="15" as="geometry" />
        </mxCell>
        <mxCell id="81niclgjnJy0ma31-HyY-158" value="" style="shape=image;html=1;verticalAlign=top;verticalLabelPosition=bottom;labelBackgroundColor=#ffffff;imageAspect=0;aspect=fixed;image=https://cdn1.iconfinder.com/data/icons/freeline/32/eye_preview_see_seen_view-128.png;rounded=0;shadow=0;glass=1;dashed=1;sketch=0;strokeColor=#000000;fontSize=11;fontColor=#000000;align=center;" vertex="1" parent="81niclgjnJy0ma31-HyY-1">
          <mxGeometry x="1266" y="1142" width="15" height="15" as="geometry" />
        </mxCell>
        <mxCell id="81niclgjnJy0ma31-HyY-159" value="" style="shape=image;html=1;verticalAlign=top;verticalLabelPosition=bottom;labelBackgroundColor=#ffffff;imageAspect=0;aspect=fixed;image=https://cdn1.iconfinder.com/data/icons/freeline/32/eye_preview_see_seen_view-128.png;rounded=0;shadow=0;glass=1;dashed=1;sketch=0;strokeColor=#000000;fontSize=11;fontColor=#000000;align=center;" vertex="1" parent="81niclgjnJy0ma31-HyY-1">
          <mxGeometry x="1464" y="1126" width="15" height="15" as="geometry" />
        </mxCell>
        <mxCell id="81niclgjnJy0ma31-HyY-160" value="" style="shape=image;html=1;verticalAlign=top;verticalLabelPosition=bottom;labelBackgroundColor=#ffffff;imageAspect=0;aspect=fixed;image=https://cdn1.iconfinder.com/data/icons/freeline/32/eye_preview_see_seen_view-128.png;rounded=0;shadow=0;glass=1;dashed=1;sketch=0;strokeColor=#000000;fontSize=11;fontColor=#000000;align=center;" vertex="1" parent="81niclgjnJy0ma31-HyY-1">
          <mxGeometry x="1464" y="1156" width="15" height="15" as="geometry" />
        </mxCell>
        <mxCell id="81niclgjnJy0ma31-HyY-161" value="Country (Selected dimension)" style="text;html=1;fillColor=#f5f5f5;align=left;verticalAlign=middle;whiteSpace=wrap;rounded=1;strokeColor=#666666;fontColor=#333333;fontStyle=1" vertex="1" parent="81niclgjnJy0ma31-HyY-1">
          <mxGeometry x="1343" y="1314.5" width="207" height="20" as="geometry" />
        </mxCell>
        <mxCell id="81niclgjnJy0ma31-HyY-162" value="VCR" style="text;html=1;fillColor=#f5f5f5;align=left;verticalAlign=middle;whiteSpace=wrap;rounded=1;strokeColor=#666666;fontColor=#333333;fontStyle=1" vertex="1" parent="81niclgjnJy0ma31-HyY-1">
          <mxGeometry x="1563" y="1314.5" width="72" height="125" as="geometry" />
        </mxCell>
        <mxCell id="81niclgjnJy0ma31-HyY-163" value="CTR" style="text;html=1;fillColor=#f5f5f5;align=left;verticalAlign=middle;whiteSpace=wrap;rounded=1;strokeColor=#666666;fontColor=#333333;fontStyle=1" vertex="1" parent="81niclgjnJy0ma31-HyY-1">
          <mxGeometry x="1641" y="1314.5" width="72" height="125" as="geometry" />
        </mxCell>
        <mxCell id="81niclgjnJy0ma31-HyY-164" value="Revenue" style="text;html=1;fillColor=#f5f5f5;align=left;verticalAlign=middle;whiteSpace=wrap;rounded=1;strokeColor=#666666;fontColor=#333333;fontStyle=1" vertex="1" parent="81niclgjnJy0ma31-HyY-1">
          <mxGeometry x="1797" y="1314.5" width="72" height="125" as="geometry" />
        </mxCell>
        <mxCell id="81niclgjnJy0ma31-HyY-165" value="Ad Capacity" style="text;html=1;fillColor=#f5f5f5;align=left;verticalAlign=middle;whiteSpace=wrap;rounded=1;strokeColor=#666666;fontColor=#333333;fontStyle=1" vertex="1" parent="81niclgjnJy0ma31-HyY-1">
          <mxGeometry x="1875" y="1314.5" width="72" height="125" as="geometry" />
        </mxCell>
        <mxCell id="81niclgjnJy0ma31-HyY-166" value="Imps." style="text;html=1;fillColor=#f5f5f5;align=left;verticalAlign=middle;whiteSpace=wrap;rounded=1;strokeColor=#666666;fontColor=#333333;fontStyle=1" vertex="1" parent="81niclgjnJy0ma31-HyY-1">
          <mxGeometry x="1953" y="1314.5" width="72" height="125" as="geometry" />
        </mxCell>
        <mxCell id="81niclgjnJy0ma31-HyY-167" value="Views" style="text;html=1;fillColor=#f5f5f5;align=left;verticalAlign=middle;whiteSpace=wrap;rounded=1;strokeColor=#666666;fontColor=#333333;fontStyle=1" vertex="1" parent="81niclgjnJy0ma31-HyY-1">
          <mxGeometry x="2031" y="1314.5" width="72" height="125" as="geometry" />
        </mxCell>
        <mxCell id="81niclgjnJy0ma31-HyY-168" value="Publisher" style="text;html=1;fillColor=#f5f5f5;align=left;verticalAlign=middle;whiteSpace=wrap;rounded=1;strokeColor=#666666;fontColor=#333333;fontStyle=1" vertex="1" parent="81niclgjnJy0ma31-HyY-1">
          <mxGeometry x="1343" y="1339.5" width="207" height="20" as="geometry" />
        </mxCell>
        <mxCell id="81niclgjnJy0ma31-HyY-169" value="CPM/CPV cost" style="text;html=1;fillColor=#f5f5f5;align=left;verticalAlign=middle;whiteSpace=wrap;rounded=1;strokeColor=#666666;fontColor=#333333;fontStyle=1" vertex="1" parent="81niclgjnJy0ma31-HyY-1">
          <mxGeometry x="1719" y="1314.5" width="72" height="125" as="geometry" />
        </mxCell>
        <mxCell id="81niclgjnJy0ma31-HyY-170" value="Ordenar por:" style="text;html=1;strokeColor=none;fillColor=none;align=center;verticalAlign=middle;whiteSpace=wrap;rounded=0;fontSize=7;" vertex="1" parent="81niclgjnJy0ma31-HyY-1">
          <mxGeometry x="1940" y="1274.5" width="63" height="20" as="geometry" />
        </mxCell>
        <mxCell id="81niclgjnJy0ma31-HyY-171" value="CPM/CPV" style="rounded=1;fillColor=#F1F2F4;strokeColor=none;html=1;fontColor=#596780;align=left;fontSize=12;spacingLeft=10" vertex="1" parent="81niclgjnJy0ma31-HyY-1">
          <mxGeometry x="2003" y="1274.5" width="100" height="20" as="geometry" />
        </mxCell>
        <mxCell id="81niclgjnJy0ma31-HyY-172" value="" style="shape=triangle;direction=south;fillColor=#596780;strokeColor=none;html=1" vertex="1" parent="81niclgjnJy0ma31-HyY-171">
          <mxGeometry x="1" y="0.5" width="12" height="6" relative="1" as="geometry">
            <mxPoint x="-20" y="-3" as="offset" />
          </mxGeometry>
        </mxCell>
        <mxCell id="81niclgjnJy0ma31-HyY-173" value="Buscar Pub/App/Channel" style="text;html=1;fillColor=none;align=center;verticalAlign=middle;whiteSpace=wrap;rounded=1;fontSize=7;strokeColor=#000000;glass=0;" vertex="1" parent="81niclgjnJy0ma31-HyY-1">
          <mxGeometry x="1343" y="1274.5" width="207" height="20" as="geometry" />
        </mxCell>
        <mxCell id="81niclgjnJy0ma31-HyY-176" value="Selección de goal (VCR, CTR, Reach, KPI)" style="text;html=1;strokeColor=none;fillColor=none;align=center;verticalAlign=middle;whiteSpace=wrap;rounded=0;fontSize=14;fontStyle=1" vertex="1" parent="81niclgjnJy0ma31-HyY-1">
          <mxGeometry x="2158" y="963.5" width="180" height="20" as="geometry" />
        </mxCell>
        <mxCell id="81niclgjnJy0ma31-HyY-177" value="Selección de Audiencia" style="text;html=1;strokeColor=none;fillColor=none;align=center;verticalAlign=middle;whiteSpace=wrap;rounded=0;fontSize=14;fontStyle=1" vertex="1" parent="81niclgjnJy0ma31-HyY-1">
          <mxGeometry x="2158" y="1210" width="180" height="20" as="geometry" />
        </mxCell>
        <mxCell id="81niclgjnJy0ma31-HyY-178" value="Selección de producto/industria" style="text;html=1;strokeColor=none;fillColor=none;align=center;verticalAlign=middle;whiteSpace=wrap;rounded=0;fontSize=14;fontStyle=1" vertex="1" parent="81niclgjnJy0ma31-HyY-1">
          <mxGeometry x="2158" y="1020" width="180" height="20" as="geometry" />
        </mxCell>
        <mxCell id="81niclgjnJy0ma31-HyY-179" value="Selección de producto/industria" style="text;html=1;strokeColor=none;fillColor=none;align=center;verticalAlign=middle;whiteSpace=wrap;rounded=0;fontSize=14;fontStyle=1" vertex="1" parent="81niclgjnJy0ma31-HyY-1">
          <mxGeometry x="2158" y="1073.5" width="180" height="20" as="geometry" />
        </mxCell>
      </root>
    </mxGraphModel>
  </diagram>
</mxfile>
